<svg width="39" height="38" viewBox="0 0 39 38" fill="none" xmlns="http://www.w3.org/2000/svg">
<path d="M14.3333 36.0001C15.2538 36.0001 16 35.2539 16 34.3334C16 33.4129 15.2538 32.6667 14.3333 32.6667C13.4128 32.6667 12.6666 33.4129 12.6666 34.3334C12.6666 35.2539 13.4128 36.0001 14.3333 36.0001Z" stroke="#0A2752" stroke-width="3.3" stroke-linecap="round" stroke-linejoin="round"/>
<path d="M32.6667 36.0001C33.5871 36.0001 34.3333 35.2539 34.3333 34.3334C34.3333 33.4129 33.5871 32.6667 32.6667 32.6667C31.7462 32.6667 31 33.4129 31 34.3334C31 35.2539 31.7462 36.0001 32.6667 36.0001Z" stroke="#0A2752" stroke-width="3.3" stroke-linecap="round" stroke-linejoin="round"/>
<path d="M1 1H7.66667L12.1333 23.3167C12.2857 24.084 12.7032 24.7733 13.3126 25.2638C13.922 25.7544 14.6845 26.015 15.4667 26H31.6667C32.4488 26.015 33.2114 25.7544 33.8208 25.2638C34.4302 24.7733 34.8476 24.084 35 23.3167L37.6667 9.33333H9.33333" stroke="#0A2752" stroke-width="2" stroke-linecap="round" stroke-linejoin="round"/>
</svg>
