<svg width="19" height="19" viewBox="0 0 19 19" fill="none" xmlns="http://www.w3.org/2000/svg">
<path d="M9.67826 4.57858C7.04663 4.57858 4.94956 6.64304 4.94956 9.14421C4.94956 11.6851 7.04663 13.7099 9.67826 13.7099C12.2688 13.7099 14.407 11.6851 14.407 9.14421C14.407 6.64304 12.2688 4.57858 9.67826 4.57858ZM9.67826 12.1218C7.99237 12.1218 6.59432 10.8117 6.59432 9.14421C6.59432 7.51646 7.95125 6.20632 9.67826 6.20632C11.3641 6.20632 12.7211 7.51646 12.7211 9.14421C12.7211 10.8117 11.3641 12.1218 9.67826 12.1218ZM15.6816 4.41977C15.6816 3.82425 15.1882 3.34784 14.5714 3.34784C13.9546 3.34784 13.4612 3.82425 13.4612 4.41977C13.4612 5.01529 13.9546 5.4917 14.5714 5.4917C15.1882 5.4917 15.6816 5.01529 15.6816 4.41977ZM18.8067 5.4917C18.7245 4.06246 18.3955 2.79202 17.3264 1.75979C16.2573 0.72756 14.9415 0.40995 13.4612 0.330548C11.9398 0.251145 7.37559 0.251145 5.85418 0.330548C4.37389 0.40995 3.0992 0.72756 1.98899 1.75979C0.919891 2.79202 0.590938 4.06246 0.5087 5.4917C0.426462 6.96065 0.426462 11.3675 0.5087 12.8364C0.590938 14.2657 0.919891 15.4964 1.98899 16.5683C3.0992 17.6006 4.37389 17.9182 5.85418 17.9976C7.37559 18.077 11.9398 18.077 13.4612 17.9976C14.9415 17.9182 16.2573 17.6006 17.3264 16.5683C18.3955 15.4964 18.7245 14.2657 18.8067 12.8364C18.8889 11.3675 18.8889 6.96065 18.8067 5.4917ZM16.833 14.3848C16.5451 15.1788 15.8872 15.7743 15.106 16.0919C13.8724 16.5683 10.9941 16.4492 9.67826 16.4492C8.32133 16.4492 5.44299 16.5683 4.25054 16.0919C3.42816 15.7743 2.81137 15.1788 2.48242 14.3848C1.98899 13.2334 2.11234 10.4544 2.11234 9.14421C2.11234 7.87378 1.98899 5.09469 2.48242 3.90366C2.81137 3.14933 3.42816 2.55381 4.25054 2.23621C5.44299 1.75979 8.32133 1.87889 9.67826 1.87889C10.9941 1.87889 13.8724 1.75979 15.106 2.23621C15.8872 2.51411 16.504 3.14933 16.833 3.90366C17.3264 5.09469 17.203 7.87378 17.203 9.14421C17.203 10.4544 17.3264 13.2334 16.833 14.3848Z" fill="white"/>
</svg>
