<svg width="401" height="328" viewBox="0 0 401 328" fill="none" xmlns="http://www.w3.org/2000/svg">
<path fill-rule="evenodd" clip-rule="evenodd" d="M281.31 296.88L313.942 268.658L317.217 269.428L305.404 319.457L298.195 317.756L303.864 293.739L306.485 284.279L273.781 312.221L270.647 311.482L282.46 261.456L289.671 263.154L284.14 286.554L281.31 296.88ZM237.834 286.63L270.47 258.41L273.743 259.185L261.929 309.211L254.72 307.508L260.392 283.491L263.011 274.032L230.306 301.976L227.174 301.237L238.983 251.207L246.197 252.909L240.669 276.307L237.834 286.63ZM186.324 265.133C189.479 251.784 199.243 241.196 213.828 244.631C223.855 246.993 229.362 254.672 229.307 264.855L229.302 266.009L222.272 264.352L222.249 263.643C222.075 257.337 218.164 253.114 212.158 251.699C201.976 249.3 195.644 257.9 193.534 266.833C191.447 275.686 193.338 286.304 203.427 288.683C210.189 290.274 214.759 287.596 218.159 281.626L218.499 281.024L225.477 282.67L225.004 283.694C220.649 293.119 211.994 298.165 201.758 295.751C187.265 292.332 183.188 278.416 186.324 265.133ZM141.953 254.675C145.105 241.328 154.877 230.736 169.462 234.172C179.486 236.535 184.995 244.213 184.936 254.397L184.931 255.55L177.898 253.898L177.88 253.187C177.71 246.882 173.798 242.656 167.789 241.241C157.609 238.842 151.278 247.441 149.167 256.375C147.076 265.225 148.972 275.85 159.06 278.227C165.822 279.821 170.393 277.141 173.79 271.17L174.132 270.57L181.109 272.215L180.633 273.239C176.281 282.665 167.627 287.708 157.391 285.296C142.893 281.882 138.82 267.958 141.953 254.675ZM137.986 253.743C134.846 267.048 124.743 277.599 110.277 274.193C95.7653 270.773 91.626 256.886 94.7751 243.557C97.9113 230.269 107.943 219.674 122.415 223.085C136.925 226.504 141.141 240.396 137.986 253.743ZM64.4313 245.811L60.6588 261.775L53.3832 260.059L65.1435 210.239L66.042 210.451C71.5284 211.742 77.0228 213.011 82.5013 214.329C92.341 216.7 96.0514 225.012 93.8109 234.503C91.6259 243.751 84.4457 250.529 74.5678 248.201L64.4313 245.811ZM208.798 206.046C211.322 208.28 212.392 211.628 211.576 215.083C209.677 223.125 202.621 224.226 195.479 222.543L183.336 219.68L191.555 184.861L202.875 187.531C209.576 189.111 215.367 192.298 213.53 200.069C212.897 202.758 211.252 205.043 208.798 206.046ZM335.051 165.983C332.773 175.632 325.437 182.891 315.053 180.441C304.645 177.99 301.344 168.266 303.632 158.579C305.898 148.983 313.219 141.815 323.53 144.244C333.927 146.695 337.346 156.248 335.051 165.983ZM291.188 158.543L277.696 155.364L274.215 170.092L267.484 168.507L275.704 133.689L282.436 135.279L279.201 148.981L292.697 152.16L295.934 138.457L302.598 140.027L294.378 174.845L287.713 173.275L291.188 158.543ZM255.863 161.612C252.748 164.091 248.509 164.757 244.563 163.829C237.889 162.26 234.757 156.588 236.307 150.015C238.092 142.458 243.913 139.721 251.153 141.43C253.896 142.077 256.441 143.175 258.769 144.722L259.409 142.011C260.474 137.49 257.505 135.124 253.516 134.187C250.722 133.526 247.439 133.342 244.735 134.469L243.458 135.001L243.457 128.681L244.098 128.475C247.664 127.338 251.809 127.343 255.436 128.196C263.286 130.044 267.869 135.361 265.903 143.681L262.617 157.591C262.098 159.782 261.14 162.312 264.189 162.524L265.249 162.6L264.106 167.903L263.336 167.875C258.384 167.689 255.803 165.703 255.863 161.612ZM219.705 127.449L214.362 143.635C211.471 152.108 208.604 156.362 199.313 152.43L198.57 152.116L200.158 146.311L201.131 146.726C205.77 148.704 206.434 145.454 207.747 141.603L215.305 119.457L237.453 124.676L229.228 159.491L222.362 157.874L229.025 129.647L219.705 127.449ZM178.901 130.779C177.721 136.559 180.111 142.046 186.241 143.493C189.558 144.273 192.829 144.105 196.14 143.384L197.334 143.122L196.94 149.191L196.318 149.369C192.599 150.441 188.612 150.643 184.836 149.754C173.732 147.14 169.966 137.329 172.72 126.835C175.076 117.87 182.514 111.006 192.144 113.276C203.396 115.928 204.915 125.64 201.075 135.203L200.78 135.937L178.901 130.779ZM163.727 137.679L167.585 138.586L163.995 152.726L157.897 151.287L159.822 143.133L139.81 138.419L137.886 146.572L131.637 145.103L134.913 130.883L136.599 131.288C140.503 132 142.645 123.703 143.613 121.044L149.833 104.027L170.523 108.9L163.727 137.679ZM97.5299 102.196C100.683 88.8476 110.452 78.2562 125.035 81.6934C135.06 84.0538 140.57 91.7327 140.516 101.914L140.508 103.072L133.479 101.412L133.457 100.703C133.281 94.3999 129.372 90.1747 123.364 88.7596C113.182 86.3609 106.851 94.9606 104.741 103.893C102.653 112.745 104.543 123.369 114.636 125.747C121.396 127.343 125.97 124.657 129.363 118.687L129.705 118.087L136.686 119.735L136.211 120.761C131.854 130.182 123.202 135.228 112.963 132.816C98.4696 129.401 94.3937 115.479 97.5299 102.196ZM242.599 209.623L326.666 229.435L325.316 235.156L241.249 215.345L242.599 209.623ZM141.56 44.6345C146.584 42.7308 151.706 41.0681 156.892 39.6581C162.079 38.2487 167.336 37.0955 172.636 36.1928C178.017 35.2792 183.45 34.6254 188.896 34.2509C194.356 33.8713 199.833 33.7601 205.299 33.9254C210.923 34.0964 216.54 34.5518 222.116 35.2907C227.705 36.0282 233.258 37.04 238.746 38.331C244.231 39.6227 249.652 41.2038 254.982 43.0353C260.304 44.8668 265.531 46.9668 270.639 49.3258C275.606 51.6177 280.454 54.1637 285.168 56.9405C289.877 59.7073 294.44 62.7143 298.848 65.9393C303.189 69.1138 307.383 72.4939 311.396 76.0783C315.394 79.6547 319.227 83.4188 322.866 87.3647L323.487 88.0387L319.131 92.0647L318.506 91.3856C315 87.5841 311.305 83.9485 307.443 80.5019C303.572 77.0496 299.54 73.7806 295.358 70.7194C291.11 67.6106 286.703 64.7212 282.171 62.054C277.62 59.3768 272.944 56.9095 268.152 54.6962C263.227 52.4252 258.189 50.4025 253.058 48.6395C247.916 46.8687 242.681 45.3604 237.383 44.1098C232.085 42.8621 226.728 41.8742 221.333 41.1583C215.954 40.4519 210.543 40.0066 205.12 39.8435C199.845 39.6826 194.557 39.801 189.293 40.1625C184.043 40.5248 178.813 41.1511 173.622 42.0308C168.514 42.8975 163.449 44.016 158.453 45.372C153.448 46.733 148.51 48.3415 143.66 50.1781L142.799 50.5071L140.696 44.9614L141.56 44.6345ZM259.436 356.008C254.411 357.916 249.287 359.574 244.102 360.985C238.918 362.398 233.664 363.548 228.368 364.45C222.984 365.363 217.553 366.016 212.104 366.392C206.646 366.77 201.171 366.882 195.705 366.714C190.08 366.547 184.465 366.091 178.883 365.352C173.297 364.611 167.742 363.603 162.254 362.312C156.764 361.017 151.339 359.439 145.999 357.606C140.685 355.777 135.466 353.671 130.361 351.317C125.407 349.031 120.563 346.5 115.865 343.728C111.149 340.95 106.576 337.931 102.16 334.705C97.826 331.537 93.644 328.16 89.6389 324.589C85.6252 321.007 81.7856 317.233 78.1373 313.278L77.5125 312.602L81.8737 308.581L82.5013 309.258C86.0196 313.07 89.7206 316.716 93.592 320.172C97.4483 323.614 101.471 326.875 105.648 329.923C109.91 333.035 114.321 335.941 118.868 338.618C123.405 341.287 128.069 343.74 132.85 345.946C137.768 348.212 142.801 350.24 147.927 352.002C153.075 353.774 158.319 355.286 163.621 356.536C168.917 357.783 174.274 358.771 179.669 359.486C185.047 360.194 190.458 360.636 195.881 360.799C201.157 360.96 206.439 360.843 211.707 360.48C216.962 360.118 222.197 359.499 227.385 358.616C232.489 357.749 237.548 356.626 242.543 355.271C247.547 353.911 252.49 352.301 257.34 350.464L258.2 350.135L260.299 355.681L259.436 356.008ZM69.5674 168.842L153.635 188.657L152.284 194.375L68.2168 174.565L69.5674 168.842ZM101.989 245.256C99.8686 254.227 101.728 264.716 112.017 267.141C122.174 269.532 128.662 261.002 130.777 252.043C132.892 243.083 130.905 232.55 120.743 230.154C110.462 227.73 104.1 236.3 101.989 245.256ZM65.9993 238.862L76.1402 241.254C81.6288 242.548 85.6924 237.565 86.835 232.714C88.1019 227.358 86.6256 222.545 80.861 221.186C77.501 220.328 74.1113 219.584 70.7339 218.8L65.9993 238.862ZM195.051 200.153L199.914 201.301C202.716 201.96 205.752 202.31 206.584 198.795C207.412 195.283 204.747 194.206 201.758 193.502L196.894 192.358L195.051 200.153ZM191.541 215.027L197.02 216.313C200.262 217.078 203.962 217.259 204.88 213.362C205.905 209.036 202.035 208.032 198.724 207.251L193.657 206.058L191.541 215.027ZM310.517 160.129C309.217 165.627 310.178 172.556 316.559 174.061C322.939 175.562 326.899 169.795 328.198 164.295C329.521 158.692 328.419 152.129 322.021 150.623C315.706 149.133 311.811 154.638 310.517 160.129ZM257.373 150.646C255.513 149.158 253.308 148.17 250.993 147.624C247.352 146.768 244.179 147.392 243.223 151.431C242.509 154.457 244.071 156.974 247.097 157.684C250.917 158.589 255.161 156.933 256.748 153.302L257.373 150.646ZM180.718 124.979L196.261 128.636C197.25 123.974 195.749 120.499 190.714 119.314C185.973 118.198 182.555 120.9 180.718 124.979ZM154.111 111.772L149.813 123.93C148.928 126.594 147.603 130.993 145.212 133.315L157.064 136.107L162.348 113.715L154.111 111.772Z" fill="white" fill-opacity="0.05"/>
<path d="M200.5 0C255.868 0 305.995 22.4219 342.276 58.6712C378.556 94.9196 401 145.005 401 200.32C401 255.638 378.558 305.72 342.276 341.969C305.995 378.219 255.868 400.641 200.5 400.641C145.135 400.641 95.0055 378.217 58.7238 341.969C22.4421 305.72 0 255.638 0 200.32C0 145.005 22.4435 94.9196 58.7238 58.6712C95.0055 22.4234 145.135 0 200.5 0ZM338.085 62.8581C302.875 27.6812 254.23 5.9203 200.5 5.9203C146.772 5.9203 98.1258 27.6812 62.9152 62.8581C27.7068 98.0378 5.92634 146.64 5.92634 200.32C5.92634 254.002 27.7068 302.604 62.9152 337.782C98.1258 372.959 146.772 394.72 200.5 394.72C254.23 394.72 302.875 372.959 338.085 337.782C373.293 302.604 395.074 254.002 395.074 200.32C395.074 146.64 373.293 98.0378 338.085 62.8581Z" fill="white" fill-opacity="0.05"/>
</svg>
