<svg width="270" height="64" viewBox="0 0 270 64" fill="none" xmlns="http://www.w3.org/2000/svg">
<path fill-rule="evenodd" clip-rule="evenodd" d="M90.3311 45.6553C95.4746 45.6553 100.081 43.3635 103.188 39.7437V39.3695V32.2477V28.7117V25.4471L94.4278 25.4478L88.4502 33.2552H94.6738V34.404V36.5368V36.6087C93.4432 37.2872 92.0373 37.6856 90.5424 37.7203L90.4083 37.7216H90.3697H90.3311C85.3564 37.7216 81.3219 33.6883 81.3219 28.713V28.7064L81.3232 28.5409L81.3258 28.4585L81.3278 28.365L81.3369 28.1962L81.3422 28.1013C81.3566 27.888 81.3781 27.6761 81.4076 27.4667L81.4475 27.2135L81.4514 27.1841C81.8564 24.84 83.1746 22.7334 85.1621 21.3354L85.1804 21.3223L85.4448 21.145L85.4461 21.1437L85.6273 21.0305L85.7392 20.9625L85.9341 20.8506L86.0872 20.7649L86.0977 20.7597L86.1166 20.7492L86.2789 20.6668L86.5098 20.5542L86.6642 20.4849L86.871 20.3946L87.0829 20.3083L87.219 20.2572L87.444 20.1761H87.4454L87.4506 20.1748L87.6573 20.1094L87.8719 20.0453L87.9197 20.0322L88.2971 19.936L88.5301 19.8843L88.7512 19.8431L88.8689 19.8241L88.9769 19.8065L89.0037 19.8026L89.0312 19.7986L89.058 19.7947L89.0848 19.7908L89.1117 19.7869L89.1391 19.7829L89.1659 19.779L89.2608 19.7679H89.266L89.4178 19.7522L89.6442 19.7319L89.9045 19.7149L90.1139 19.7083L90.8002 19.7175L91.0266 19.7319L91.268 19.7535C91.408 19.7679 91.5466 19.7842 91.6853 19.8065L91.9359 19.847L92.1544 19.8896L92.3625 19.936L92.5862 19.991L92.8034 20.0479L93.0245 20.1159L93.2594 20.1918L93.419 20.2494L93.6127 20.3213L93.8338 20.4116L94.032 20.4986L94.1832 20.5693L94.4278 20.6877L94.5947 20.776L94.6411 20.8022L99.4928 14.4648L99.3874 14.3968L99.2278 14.298L99.0015 14.1606L98.849 14.0703L98.7064 13.9866L98.5239 13.8852L98.2838 13.753L98.1948 13.7079C98.1065 13.6608 98.0188 13.6156 97.9285 13.5705L97.7912 13.5024L97.587 13.4037L97.4202 13.3251L97.2325 13.2401L97.0414 13.157L96.8164 13.0608L96.6194 12.981L96.4755 12.9254L96.2472 12.8371L96.0784 12.775L95.837 12.6893L95.7127 12.6493L95.313 12.5198C95.2142 12.4877 95.1148 12.459 95.0147 12.4308L94.9172 12.4027C94.8171 12.3759 94.7163 12.3477 94.6162 12.3216L94.5214 12.2974C94.4187 12.2706 94.3146 12.2444 94.2106 12.2215L94.1125 12.1986C93.9987 12.1724 93.8842 12.1482 93.7723 12.124L93.7232 12.1162C93.6015 12.0893 93.4779 12.0658 93.3562 12.0442L93.2908 12.0324C93.1737 12.0108 93.0566 11.9919 92.9382 11.9735L92.8845 11.9657C92.757 11.9467 92.6274 11.9271 92.4979 11.912L92.4717 11.9081C92.3409 11.8924 92.2087 11.8774 92.0753 11.863L92.0556 11.8617C91.9209 11.8473 91.7854 11.8362 91.6507 11.8244L91.6134 11.8218C91.4812 11.8113 91.3478 11.8041 91.2156 11.7963L91.1881 11.7949C91.0547 11.7884 90.9186 11.7832 90.7694 11.7799H90.7505C90.6118 11.7747 90.4698 11.7747 90.3311 11.7747C90.1898 11.7747 90.0498 11.7747 89.9098 11.7799L89.866 11.7806C89.7351 11.7832 89.6043 11.7884 89.4728 11.7949L89.4473 11.7963C89.3151 11.8041 89.181 11.8113 89.0475 11.8218L89.0115 11.8244C88.8755 11.8362 88.7407 11.8473 88.606 11.8617L88.585 11.863C88.4515 11.8774 88.3155 11.8937 88.182 11.9094L88.1742 11.9107C88.04 11.9271 87.9092 11.9467 87.7757 11.9657L87.7247 11.9735C87.6056 11.9919 87.4879 12.0108 87.3708 12.0324L87.3067 12.0442C87.183 12.0658 87.0587 12.0893 86.9377 12.1148L86.8919 12.124C86.7774 12.1482 86.6629 12.1724 86.5484 12.1986L86.4509 12.2215C86.3456 12.2444 86.2442 12.2706 86.1415 12.2974L86.0447 12.3216C85.9446 12.3491 85.8445 12.3759 85.7444 12.4027L85.6463 12.4321C85.5475 12.4609 85.4474 12.4877 85.3499 12.5198L84.9744 12.6389L84.8435 12.684L84.6021 12.7691L84.436 12.8279L84.2063 12.9169L84.0585 12.9745L83.8668 13.0517L83.6417 13.1452L83.4481 13.2316L83.2571 13.3186L83.0948 13.3945L82.8894 13.4939L82.7311 13.5718C82.6427 13.6156 82.5538 13.6614 82.4668 13.7072L82.3974 13.7438L82.158 13.874L81.9722 13.9781L81.8296 14.0592L81.6778 14.1488L81.4501 14.2875L81.2983 14.3811L80.9902 14.5819L80.7678 14.7311L80.6199 14.8325L80.3465 15.0287C76.3256 17.9766 73.8193 22.4836 73.4399 27.4078V27.4242L73.4144 27.8095L73.4104 27.8828L73.398 28.2118L73.3941 28.3368L73.3902 28.7091V28.7143L73.3954 29.1513C73.6276 38.3058 81.121 45.6553 90.3311 45.6553Z" fill="#262D40"/>
<path fill-rule="evenodd" clip-rule="evenodd" d="M216.083 12.8041H207.445V32.3998C207.445 49.7909 234.383 49.7922 234.383 32.3998L234.384 12.8041H225.746V32.5758C225.746 39.3987 216.083 39.3987 216.083 32.5758V12.8041Z" fill="#262D40"/>
<path fill-rule="evenodd" clip-rule="evenodd" d="M110.505 44.6203H132.701L127.428 37.7183H119.142V12.8025H110.505V44.6203Z" fill="#262D40"/>
<path fill-rule="evenodd" clip-rule="evenodd" d="M260.755 19.6855L266.023 12.8025H250.5C245.156 12.8025 240.825 17.1341 240.825 22.4777C240.825 27.5727 245.163 31.9992 250.216 32.1477L258.571 32.1529C260.112 32.1542 261.362 33.4031 261.362 34.9451C261.362 36.4871 260.112 37.7373 258.571 37.7373H245.223L239.954 44.6203H260.325C265.645 44.6203 270 40.2626 270 34.9451C270 29.8187 265.678 25.425 260.609 25.2752L252.254 25.2699C250.712 25.2686 249.462 24.0197 249.462 22.4777C249.462 20.9364 250.712 19.6855 252.254 19.6855H260.755Z" fill="#262D40"/>
<path fill-rule="evenodd" clip-rule="evenodd" d="M172.269 12.8025V44.6203H192.427C197.173 44.6203 201.018 40.7723 201.018 36.0272C201.018 33.0636 199.501 30.3296 197.001 28.7536L196.071 28.1668L196.837 27.3778C198.399 25.7691 199.264 23.6376 199.264 21.395C199.264 16.6493 195.417 12.8031 190.672 12.8031L172.269 12.8025ZM180.906 32.1529H189.589C191.131 32.1529 192.381 33.4031 192.381 34.9451C192.381 36.4871 191.131 37.7373 189.589 37.7373H180.906V32.1529ZM180.906 19.6855H187.834C189.376 19.6855 190.627 20.9364 190.627 22.4777C190.627 24.0197 189.376 25.2699 187.834 25.2699H180.906V19.6855Z" fill="#262D40"/>
<path fill-rule="evenodd" clip-rule="evenodd" d="M149.274 45.6519C158.631 45.6519 166.214 38.0669 166.214 28.7116C166.214 23.2986 163.675 18.1859 159.261 15.0273L159.006 14.8441L158.856 14.7401L158.637 14.5923L158.331 14.3927L158.171 14.2939L157.945 14.1566L157.792 14.0669L157.649 13.9832L157.467 13.8818L157.227 13.749L157.138 13.7038C157.05 13.6567 156.962 13.6116 156.872 13.5665L156.734 13.4984L156.53 13.3996L156.363 13.3211L156.176 13.2361L155.984 13.153L155.759 13.0568L155.563 12.977L155.419 12.9214L155.19 12.8331L155.022 12.7709L154.78 12.6852L154.655 12.6453L154.256 12.5158C154.157 12.4837 154.058 12.4549 153.958 12.4268L153.86 12.3987C153.76 12.3719 153.66 12.3437 153.559 12.3176L153.464 12.2933C153.362 12.2665 153.258 12.2404 153.154 12.2175L153.056 12.1946C152.942 12.1684 152.827 12.1442 152.715 12.12L152.666 12.1121C152.545 12.0853 152.421 12.0624 152.299 12.0402L152.233 12.0284C152.117 12.0068 152 11.9878 151.881 11.9695L151.828 11.9617C151.701 11.9427 151.57 11.9231 151.441 11.908L151.415 11.9041C151.284 11.8884 151.152 11.8733 151.018 11.859L150.999 11.8576C150.864 11.8439 150.729 11.8321 150.594 11.8204L150.556 11.8184C150.424 11.8073 150.291 11.8001 150.159 11.7922L150.131 11.7909C149.998 11.7844 149.862 11.7798 149.713 11.7759H149.693C149.554 11.7706 149.414 11.7706 149.274 11.7706C149.133 11.7706 148.993 11.7706 148.853 11.7759L148.81 11.7765C148.678 11.7798 148.547 11.7844 148.416 11.7909L148.39 11.7922C148.258 11.8001 148.125 11.8073 147.991 11.8184L147.955 11.8204C147.819 11.8321 147.684 11.8439 147.548 11.8576L147.528 11.859C147.395 11.8733 147.259 11.8897 147.125 11.9054L147.117 11.9067C146.983 11.9231 146.852 11.9427 146.719 11.9617L146.667 11.9695C146.549 11.9878 146.431 12.0068 146.314 12.0284L146.25 12.0402C146.127 12.0624 146.002 12.0853 145.881 12.1108L145.835 12.12C145.72 12.1442 145.606 12.1684 145.492 12.1946L145.394 12.2175C145.289 12.2404 145.187 12.2665 145.085 12.2933L144.988 12.3176C144.888 12.345 144.788 12.3719 144.687 12.3987L144.59 12.4281C144.491 12.4569 144.39 12.4837 144.293 12.5158L143.917 12.6348L143.787 12.68L143.545 12.765L143.379 12.8239L143.149 12.9129L143.002 12.9705L142.81 13.0477L142.585 13.1412L142.391 13.2276L142.199 13.3146L142.038 13.3905L141.832 13.4899L141.674 13.5678C141.586 13.6116 141.497 13.658 141.409 13.7032L141.34 13.7398L141.101 13.87L140.915 13.974L140.773 14.0552L140.621 14.1448L140.393 14.2835L140.241 14.3777L139.933 14.5779L139.711 14.727L139.563 14.8284L139.29 15.0247C134.916 18.231 132.333 23.2855 132.333 28.7103C132.333 38.0669 139.918 45.6519 149.274 45.6519ZM149.058 19.7043L149.743 19.7135L149.97 19.7279L150.211 19.7495C150.351 19.7639 150.49 19.7802 150.629 19.8025L150.88 19.843L151.097 19.8855L151.306 19.932L151.529 19.9869L151.746 20.0439L151.968 20.1119L152.202 20.1878L152.362 20.2453L152.556 20.3173L152.777 20.4076L152.975 20.4946L153.126 20.5653L153.37 20.6837L153.538 20.772L153.695 20.8597L153.852 20.9493L154.007 21.0435L154.184 21.1567L154.332 21.2542C156.804 22.9375 158.283 25.7179 158.283 28.7103C158.283 33.6856 154.25 37.7189 149.274 37.7189C144.3 37.7189 140.265 33.6856 140.265 28.7103C140.265 25.7179 141.743 22.9375 144.226 21.2476L144.389 21.1397L144.57 21.0265L144.682 20.9585L144.877 20.8466L145.041 20.7557L145.222 20.6634L145.454 20.5502L145.607 20.4809L145.814 20.3906L146.026 20.3049L146.162 20.2532L146.388 20.1721L146.6 20.1054L146.815 20.0413L147.027 19.9824L147.24 19.932L147.473 19.881L147.716 19.8358L147.92 19.8025C148.063 19.7802 148.207 19.7626 148.361 19.7482L148.587 19.7279L148.848 19.7109L149.058 19.7043Z" fill="#262D40"/>
<path fill-rule="evenodd" clip-rule="evenodd" d="M15.5844 57.0918L20.3995 47.461C17.6478 46.0858 14.8968 45.3976 12.1452 44.7107C12.1452 48.8375 12.8334 54.3395 15.5844 57.0918Z" fill="#262D40"/>
<path fill-rule="evenodd" clip-rule="evenodd" d="M33.4684 52.9633C30.0285 50.9005 27.2776 49.5247 24.5259 48.1495L19.024 59.8417C24.5259 61.2182 30.0285 56.4025 33.4684 52.9633Z" fill="#262D40"/>
<path fill-rule="evenodd" clip-rule="evenodd" d="M35.532 50.2133C38.9713 46.7735 41.0353 42.6467 43.0981 37.8316L31.4052 32.3284L25.902 44.7107C29.3412 46.7735 32.7811 48.1499 35.532 50.2133Z" fill="#262D40"/>
<path fill-rule="evenodd" clip-rule="evenodd" d="M22.4633 42.6462L26.5901 31.6403L16.2724 26.8259C14.8966 30.9527 13.5214 35.0795 12.8332 39.2063C16.2724 40.5821 19.024 41.2704 22.4633 42.6462Z" fill="#262D40"/>
<path fill-rule="evenodd" clip-rule="evenodd" d="M18.3352 22.0108L28.6535 26.8258L33.4685 16.5081C30.7175 15.1323 27.9659 13.0683 25.2143 11.6931C22.4633 14.4441 20.3992 18.5709 18.3352 22.0108Z" fill="#262D40"/>
<path fill-rule="evenodd" clip-rule="evenodd" d="M37.5955 17.1963L32.7811 29.5773L44.474 34.3924C46.5374 30.2656 47.9138 25.4499 48.6014 20.6355C45.1622 19.9479 41.0354 18.5715 37.5955 17.1963Z" fill="#262D40"/>
<path fill-rule="evenodd" clip-rule="evenodd" d="M44.4737 2.0636L38.9711 13.7571C42.411 15.1329 45.8496 16.5087 48.6012 17.1963C49.2894 11.6937 48.6012 5.50282 44.4737 2.0636Z" fill="#262D40"/>
<path fill-rule="evenodd" clip-rule="evenodd" d="M36.2201 54.3395C38.2828 55.716 41.0351 57.7794 43.0979 60.531C36.9077 63.282 30.0285 63.9702 23.1508 62.5944C27.9658 61.2186 32.7808 57.7794 36.2201 54.3395Z" fill="#262D40"/>
<path fill-rule="evenodd" clip-rule="evenodd" d="M44.474 59.842C42.4112 57.0917 39.6589 55.0283 36.9079 52.9636C41.0354 48.1499 43.7864 43.3349 45.8498 38.5192L59.6067 44.0224C56.8557 50.9009 51.3531 56.4028 44.474 59.842Z" fill="#262D40"/>
<path fill-rule="evenodd" clip-rule="evenodd" d="M60.2946 42.6463L46.5371 36.4561C49.2894 31.6404 50.6646 25.4496 51.3528 19.9476C54.7914 20.6352 58.2312 21.3228 61.6705 20.6352C63.7339 28.2013 63.0456 35.7673 60.2946 42.6463Z" fill="#262D40"/>
<path fill-rule="evenodd" clip-rule="evenodd" d="M51.3529 18.5716C52.0405 13.7572 51.3529 7.56703 49.2895 3.43958C54.7915 7.56703 58.9189 13.069 60.9823 19.2592C57.5431 19.2592 54.7915 18.5716 51.3529 18.5716Z" fill="#262D40"/>
<path fill-rule="evenodd" clip-rule="evenodd" d="M24.526 3.43922C23.8378 2.75099 22.4633 2.0634 21.7744 1.37582C23.8378 0.687584 25.9018 0.687582 27.9659 0C26.5901 1.37582 25.2142 2.06341 24.526 3.43922Z" fill="#262D40"/>
<path fill-rule="evenodd" clip-rule="evenodd" d="M12.8333 19.2586L3.89081 15.1325C6.64245 10.3174 10.7692 6.87753 14.8967 4.1272C16.2725 5.50236 18.3353 6.87753 19.7117 8.254C16.9601 11.6932 14.8967 15.1325 12.8333 19.2586Z" fill="#262D40"/>
<path fill-rule="evenodd" clip-rule="evenodd" d="M7.3293 37.8313C5.26656 37.143 3.20315 37.143 0.452164 37.143C-0.236072 32.328 -0.236072 26.826 1.13909 21.3228L10.0816 25.4496C8.70642 29.577 8.01819 33.7038 7.3293 37.8313Z" fill="#262D40"/>
<path fill-rule="evenodd" clip-rule="evenodd" d="M6.64243 48.8374C5.26661 47.4609 4.57902 46.0857 3.2032 44.0223C4.57902 44.0223 5.26661 44.0223 6.64243 44.7106C6.64243 46.0857 6.64243 47.4609 6.64243 48.8374Z" fill="#262D40"/>
<path fill-rule="evenodd" clip-rule="evenodd" d="M28.6535 7.56695C30.7176 8.94146 33.4686 10.3179 35.532 11.6938L39.6588 1.3761C35.532 1.3761 31.4052 4.81531 28.6535 7.56695Z" fill="#262D40"/>
<path fill-rule="evenodd" clip-rule="evenodd" d="M74.2374 54.1021H73.3902V61.2461H74.2374V58.0823C74.6351 58.0823 75.4313 58.062 75.8088 57.9495L78.0744 61.2461H79.0439V61.1231L76.554 57.6028C77.0538 57.1638 77.2984 56.4186 77.513 55.684C77.7276 54.9388 78.0436 54.5914 78.8503 54.6837V54.1119C77.513 53.8672 77.0335 54.4894 76.7581 55.4386C76.5742 56.1125 76.3093 56.8982 75.8598 57.1638C75.5432 57.3574 74.921 57.3679 74.2374 57.3679V54.1021ZM89.0992 59.4804L89.9366 61.2461H90.8139V61.1336L87.5173 54.0713H87.1294L83.8027 61.1336V61.2461H84.6905L85.5272 59.4804H89.0992ZM87.3132 55.4079L88.814 58.7457H85.8131L87.3132 55.4079ZM100.216 61.2461V54.1119H99.3691V57.7761C97.1546 58.1131 95.9908 57.5413 95.9908 55.1632V54.1119H95.1337V55.1632C95.1337 58.1229 96.6947 58.9596 99.3691 58.5717V61.2461H100.216ZM110.741 54.1021H106.587V61.2461H110.853V60.4604H107.444V57.9292H110.629V57.1841H107.444V54.8472H110.741V54.1021ZM116.347 57.6741C116.347 59.9194 117.969 61.3279 119.959 61.3279C121.388 61.3279 122.766 60.5624 123.174 58.9596H122.348C121.97 59.9907 121.041 60.5415 119.949 60.5415C118.306 60.5415 117.214 59.2867 117.214 57.6741C117.214 56.0104 118.317 54.7752 119.959 54.806C120.99 54.806 121.868 55.2855 122.307 56.2551H123.134C122.705 54.7648 121.337 54.0203 119.959 54.0203C117.949 53.9895 116.347 55.4386 116.347 57.6741ZM130.393 54.8668V61.2461H131.219V54.8668H133.424V54.1021H128.188V54.8668H130.393ZM144.061 56.0104C144.061 54.6529 143.101 54.0713 141.815 54.0713H139.029V61.2154H142.122C143.459 61.2154 144.387 60.5009 144.387 59.2049C144.387 58.3577 143.918 57.7349 143.101 57.5007C143.744 57.2449 144.061 56.6738 144.061 56.0104ZM141.764 54.8263C142.601 54.8263 143.224 55.1835 143.213 56.0412C143.213 56.8982 142.55 57.2043 141.642 57.2043H139.886V54.8263H141.764ZM143.53 59.2049C143.52 60.0724 142.856 60.4604 141.948 60.4604H139.886V57.939H141.642C142.601 57.939 143.571 58.1942 143.53 59.2049ZM157.137 57.6741C157.137 55.4079 155.515 53.9791 153.514 53.9791C151.514 53.9791 149.891 55.3876 149.891 57.6741C149.891 59.9501 151.493 61.3586 153.504 61.3586C155.657 61.3586 157.137 59.8376 157.137 57.6741ZM150.748 57.6741C150.748 55.9182 151.963 54.755 153.514 54.755C155.096 54.755 156.279 55.9391 156.279 57.6741C156.279 59.4091 155.075 60.5723 153.504 60.5723C151.942 60.5723 150.748 59.4091 150.748 57.6741ZM172.744 57.8272C172.438 56.7556 171.468 56.2145 170.468 56.204C169.183 56.1942 167.856 57.0513 167.856 58.766C167.856 60.4604 169.162 61.3279 170.448 61.3279C171.478 61.3279 172.499 60.7561 172.795 59.5929H172.019C171.754 60.2864 171.111 60.6233 170.458 60.6233C169.57 60.6233 168.662 59.9808 168.662 58.766C168.662 57.5413 169.601 56.9184 170.499 56.9184C171.122 56.9184 171.714 57.2148 171.979 57.8272H172.744ZM184.83 54.7752V60.5723H183.422V61.2461H187.055V60.5723H185.637V54.1021H183.585V54.7752H184.83ZM194.498 61.2461L196.753 57.7559C197.07 57.2959 197.213 56.8576 197.223 56.2858C197.223 54.7451 196.039 53.949 194.621 53.949C193.192 53.949 192.008 54.7451 192.008 56.2858C192.008 57.7558 193.099 58.6031 194.518 58.5717C194.835 58.5717 195.171 58.4905 195.447 58.3374L193.559 61.2461H194.498ZM194.621 54.6837C195.6 54.6837 196.386 55.2652 196.386 56.2858C196.386 57.3169 195.61 57.8985 194.63 57.8985C193.641 57.8985 192.855 57.3169 192.855 56.2858C192.855 55.2652 193.63 54.6837 194.621 54.6837ZM205.186 54.0713L202.91 57.5517C202.614 57.9901 202.471 58.4801 202.471 59.0008C202.471 60.5317 203.635 61.3377 205.064 61.3377C206.493 61.3377 207.676 60.5317 207.676 59.0008C207.676 57.5308 206.574 56.6843 205.186 56.7144C204.87 56.7144 204.554 56.7857 204.277 56.9492L206.125 54.0713H205.186ZM205.064 60.603C204.084 60.603 203.309 60.0214 203.309 59.0008C203.309 57.9698 204.073 57.3882 205.053 57.3882C206.054 57.3882 206.83 57.9698 206.83 59.0008C206.83 60.0214 206.054 60.603 205.064 60.603ZM215.905 54C214.425 54 213.261 54.9283 213.261 56.4592V58.9086C213.261 60.4499 214.425 61.3684 215.905 61.3684C217.364 61.3684 218.528 60.4499 218.528 58.9086V56.4592C218.528 54.9283 217.364 54 215.905 54ZM215.905 60.6233C215.058 60.6233 214.394 60.2052 214.18 59.4699C214.108 59.256 214.068 59.0008 214.068 58.7051V56.6633C214.068 56.3676 214.108 56.1125 214.18 55.8979C214.394 55.1632 215.058 54.7347 215.905 54.7347C216.721 54.7347 217.405 55.1632 217.62 55.8979C217.691 56.1125 217.731 56.3676 217.731 56.6633V58.7051C217.731 59.0008 217.691 59.256 217.62 59.4699C217.405 60.2052 216.721 60.6233 215.905 60.6233ZM234.125 54.857C234.125 54.5816 234.125 54.3873 234.125 54.1021C232.757 54.1021 231.328 54.1021 229.961 54.1021C229.961 56.4899 229.961 58.8576 229.961 61.2461C230.247 61.2461 230.532 61.2461 230.808 61.2461C230.808 59.1127 230.808 56.9898 230.808 54.857H234.125ZM246.201 57.6741C246.201 55.4079 244.578 53.9791 242.577 53.9791C240.577 53.9791 238.955 55.3876 238.955 57.6741C238.955 59.9501 240.557 61.3586 242.567 61.3586C244.721 61.3586 246.201 59.8376 246.201 57.6741ZM239.812 57.6741C239.812 55.9182 241.026 54.755 242.577 54.755C244.16 54.755 245.343 55.9391 245.343 57.6741C245.343 59.4091 244.139 60.5723 242.567 60.5723C241.006 60.5723 239.812 59.4091 239.812 57.6741ZM253.787 54.8472H256.409V60.5212H252.807C253.153 60.2968 253.246 59.7767 253.286 59.3888L253.787 54.8472ZM251.255 60.5114V62.4093H252V61.2461C253.796 61.2461 255.491 61.2461 257.277 61.2461V62.4093H258.012V60.5114H257.236V54.1021C255.919 54.1021 254.337 54.1021 253.041 54.1021L252.439 59.3476C252.347 60.0724 252.215 60.501 251.48 60.5114H251.255ZM268.271 59.4804L269.108 61.2461H269.986V61.1336L266.689 54.0713H266.301L262.974 61.1336V61.2461H263.862L264.699 59.4804H268.271ZM266.485 55.4079L267.985 58.7457H264.985L266.485 55.4079Z" fill="#262D40"/>
</svg>
