<svg width="14" height="14" viewBox="0 0 14 14" fill="none" xmlns="http://www.w3.org/2000/svg">
<path d="M12.8333 9.86989V11.6199C12.834 11.7824 12.8007 11.9432 12.7356 12.092C12.6705 12.2409 12.5751 12.3745 12.4554 12.4843C12.3357 12.5941 12.1943 12.6778 12.0404 12.7298C11.8865 12.7819 11.7235 12.8012 11.5617 12.7866C9.76665 12.5915 8.04242 11.9781 6.5275 10.9957C5.11807 10.1001 3.92311 8.90516 3.0275 7.49573C2.04166 5.97393 1.42814 4.24131 1.23667 2.43823C1.22209 2.27692 1.24126 2.11434 1.29296 1.96084C1.34466 1.80735 1.42775 1.6663 1.53695 1.54667C1.64615 1.42705 1.77905 1.33147 1.92721 1.26603C2.07537 1.20059 2.23553 1.16671 2.3975 1.16656H4.1475C4.4306 1.16377 4.70505 1.26402 4.9197 1.44862C5.13434 1.63322 5.27455 1.88957 5.31417 2.16989C5.38803 2.72993 5.52501 3.27982 5.7225 3.80906C5.80099 4.01785 5.81797 4.24476 5.77145 4.46291C5.72492 4.68105 5.61684 4.88129 5.46 5.03989L4.71917 5.78073C5.54958 7.24113 6.75877 8.45032 8.21917 9.28073L8.96 8.53989C9.1186 8.38306 9.31884 8.27497 9.53699 8.22845C9.75513 8.18192 9.98205 8.19891 10.1908 8.27739C10.7201 8.47488 11.27 8.61186 11.83 8.68573C12.1134 8.7257 12.3722 8.86843 12.5571 9.08677C12.7421 9.3051 12.8404 9.58381 12.8333 9.86989Z" stroke="white" stroke-linecap="round" stroke-linejoin="round"/>
</svg>
