<svg width="20" height="20" viewBox="0 0 20 20" fill="none" xmlns="http://www.w3.org/2000/svg">
<path d="M5 7.50033V1.66699H15V7.50033" stroke="#828282" stroke-linecap="round" stroke-linejoin="round"/>
<path d="M5.00002 15H3.33335C2.89133 15 2.4674 14.8244 2.15484 14.5118C1.84228 14.1993 1.66669 13.7754 1.66669 13.3333V9.16667C1.66669 8.72464 1.84228 8.30072 2.15484 7.98816C2.4674 7.6756 2.89133 7.5 3.33335 7.5H16.6667C17.1087 7.5 17.5326 7.6756 17.8452 7.98816C18.1578 8.30072 18.3334 8.72464 18.3334 9.16667V13.3333C18.3334 13.7754 18.1578 14.1993 17.8452 14.5118C17.5326 14.8244 17.1087 15 16.6667 15H15" stroke="#828282" stroke-linecap="round" stroke-linejoin="round"/>
<path d="M15 11.667H5V18.3337H15V11.667Z" stroke="#828282" stroke-linecap="round" stroke-linejoin="round"/>
</svg>
