<svg width="76" height="76" viewBox="0 0 76 76" fill="none" xmlns="http://www.w3.org/2000/svg">
<g clip-path="url(#clip0)">
<path d="M38 76C58.9868 76 76 58.9868 76 38C76 17.0132 58.9868 0 38 0C17.0132 0 0 17.0132 0 38C0 58.9868 17.0132 76 38 76Z" fill="#FFD54F"/>
<path d="M68.2573 3.05273C66.4238 3.05273 64.6948 3.67023 63.3332 4.73423C61.9715 3.67023 60.2425 3.05273 58.409 3.05273C54.1403 3.05273 50.6665 6.3714 50.6665 10.4501C50.6665 16.8056 60.0873 23.7026 61.9715 25.0199C62.3832 25.3049 62.8582 25.4474 63.3332 25.4474C63.8082 25.4474 64.2832 25.3049 64.6948 25.0199C66.579 23.6994 75.9998 16.8056 75.9998 10.4501C75.9998 6.3714 72.526 3.05273 68.2573 3.05273Z" fill="#EB5757"/>
<path d="M17.5908 53.7192C15.7573 53.7192 14.0283 54.3367 12.6667 55.4007C11.305 54.3367 9.576 53.7192 7.7425 53.7192C3.47383 53.7192 0 57.0379 0 61.1166C0 67.4721 9.42083 74.3691 11.305 75.6864C11.7167 75.9714 12.1917 76.1139 12.6667 76.1139C13.1417 76.1139 13.6167 75.9714 14.0283 75.6864C15.9125 74.3659 25.3333 67.4721 25.3333 61.1166C25.3333 57.0379 21.8595 53.7192 17.5908 53.7192Z" fill="#EB5757"/>
<path d="M29.2918 35.6252C27.9808 35.6252 26.9168 34.5612 26.9168 33.2502C26.9168 31.5053 25.4982 30.0835 23.7502 30.0835C22.0022 30.0835 20.5835 31.5053 20.5835 33.2502C20.5835 34.5612 19.5195 35.6252 18.2085 35.6252C16.8975 35.6252 15.8335 34.5612 15.8335 33.2502C15.8335 28.8865 19.3833 25.3335 23.7502 25.3335C28.117 25.3335 31.6668 28.8865 31.6668 33.2502C31.6668 34.5612 30.6028 35.6252 29.2918 35.6252Z" fill="#6D4C41"/>
<path d="M57.7918 35.6252C56.4808 35.6252 55.4168 34.5612 55.4168 33.2502C55.4168 31.5053 53.9982 30.0835 52.2502 30.0835C50.5022 30.0835 49.0835 31.5053 49.0835 33.2502C49.0835 34.5612 48.0195 35.6252 46.7085 35.6252C45.3975 35.6252 44.3335 34.5612 44.3335 33.2502C44.3335 28.8865 47.8833 25.3335 52.2502 25.3335C56.617 25.3335 60.1668 28.8865 60.1668 33.2502C60.1668 34.5612 59.1028 35.6252 57.7918 35.6252Z" fill="#6D4C41"/>
<path d="M38.0002 57.0002C31.0842 57.0002 24.5862 54.3086 19.6969 49.4161C18.769 48.4882 18.769 46.9841 19.6969 46.0562C20.6247 45.1284 22.1289 45.1284 23.0567 46.0562C27.0467 50.0526 32.354 52.2502 38.0002 52.2502C43.6464 52.2502 48.9537 50.0526 52.9468 46.0594C53.8747 45.1316 55.3789 45.1316 56.3067 46.0594C57.2345 46.9872 57.2345 48.4914 56.3067 49.4192C51.4142 54.3086 44.9162 57.0002 38.0002 57.0002Z" fill="#6D4C41"/>
</g>
<defs>
<clipPath id="clip0">
<rect width="76" height="76" fill="white"/>
</clipPath>
</defs>
</svg>
