<svg width="239" height="238" viewBox="0 0 239 238" fill="none" xmlns="http://www.w3.org/2000/svg">
<path fill-rule="evenodd" clip-rule="evenodd" d="M167.111 176.361L186.497 159.596L188.442 160.053L181.424 189.773L177.142 188.763L180.51 174.495L182.067 168.875L162.639 185.475L160.777 185.036L167.794 155.318L172.078 156.326L168.793 170.227L167.111 176.361ZM141.285 170.272L160.672 153.508L162.616 153.969L155.599 183.686L151.316 182.675L154.685 168.407L156.241 162.788L136.813 179.388L134.952 178.949L141.967 149.229L146.253 150.24L142.969 164.14L141.285 170.272ZM110.685 157.502C112.56 149.572 118.36 143.282 127.024 145.323C132.981 146.726 136.252 151.287 136.219 157.336L136.216 158.022L132.04 157.038L132.027 156.617C131.923 152.871 129.6 150.362 126.032 149.522C119.984 148.096 116.222 153.205 114.969 158.512C113.729 163.771 114.852 170.078 120.845 171.492C124.863 172.437 127.577 170.846 129.597 167.3L129.799 166.942L133.944 167.919L133.663 168.528C131.076 174.127 125.934 177.125 119.854 175.69C111.244 173.66 108.823 165.393 110.685 157.502ZM84.327 151.289C86.1994 143.36 92.0043 137.069 100.669 139.11C106.623 140.513 109.896 145.074 109.861 151.124L109.858 151.809L105.68 150.828L105.669 150.405C105.568 146.66 103.244 144.149 99.6748 143.309C93.6271 141.884 89.8663 146.992 88.6121 152.299C87.3704 157.556 88.4962 163.868 94.4895 165.28C98.506 166.227 101.222 164.635 103.24 161.088L103.442 160.732L107.587 161.709L107.305 162.317C104.719 167.916 99.5787 170.913 93.4975 169.48C84.8852 167.451 82.4657 159.18 84.327 151.289ZM81.9701 150.736C80.1049 158.639 74.1031 164.907 65.5097 162.884C56.8892 160.852 54.4302 152.603 56.301 144.685C58.164 136.791 64.1233 130.497 72.7206 132.523C81.3398 134.554 83.8447 142.807 81.9701 150.736ZM38.2753 146.024L36.0342 155.507L31.7122 154.487L38.6983 124.892L39.2321 125.018C42.4913 125.785 45.7553 126.539 49.0098 127.322C54.855 128.73 57.0591 133.668 55.7281 139.306C54.4302 144.8 50.1648 148.827 44.2969 147.444L38.2753 146.024ZM124.036 122.402C125.535 123.728 126.171 125.717 125.686 127.77C124.558 132.547 120.367 133.201 116.124 132.201L108.91 130.5L113.793 109.817L120.517 111.403C124.498 112.341 127.938 114.235 126.847 118.851C126.471 120.448 125.494 121.805 124.036 122.402ZM199.036 98.6022C197.683 104.334 193.325 108.646 187.157 107.191C180.974 105.735 179.013 99.9581 180.372 94.2034C181.718 88.5032 186.067 84.2451 192.192 85.688C198.369 87.1439 200.4 92.8192 199.036 98.6022ZM172.98 94.182L164.965 92.2936L162.897 101.043L158.899 100.101L163.781 79.4181L167.781 80.3625L165.859 88.5019L173.876 90.3907L175.799 82.25L179.757 83.1832L174.875 103.866L170.916 102.934L172.98 94.182ZM151.995 96.0056C150.145 97.4782 147.626 97.8739 145.282 97.3226C141.317 96.3902 139.457 93.0211 140.378 89.1162C141.438 84.627 144.896 83.001 149.197 84.0162C150.826 84.4007 152.338 85.0527 153.721 85.9722L154.101 84.3617C154.734 81.676 152.971 80.2703 150.601 79.7134C148.941 79.3208 146.991 79.2114 145.385 79.8815L144.626 80.197L144.625 76.4426L145.006 76.3204C147.124 75.6452 149.586 75.6478 151.741 76.1549C156.404 77.2528 159.127 80.4109 157.959 85.3537L156.007 93.617C155.699 94.9185 155.13 96.4215 156.941 96.5475L157.571 96.5925L156.892 99.7425L156.434 99.7262C153.492 99.6152 151.959 98.4359 151.995 96.0056ZM130.516 75.7112L127.341 85.3262C125.624 90.3594 123.921 92.887 118.402 90.5506L117.96 90.3641L118.903 86.9158L119.481 87.1623C122.237 88.3377 122.631 86.4069 123.412 84.119L127.901 70.9635L141.058 74.0638L136.172 94.7453L132.094 93.7846L136.052 77.0166L130.516 75.7112ZM106.276 77.6892C105.575 81.123 106.994 84.3822 110.636 85.2418C112.607 85.7052 114.549 85.6053 116.516 85.177L117.226 85.0214L116.992 88.6267L116.622 88.7326C114.413 89.3696 112.045 89.4892 109.801 88.9615C103.205 87.4083 100.968 81.5804 102.604 75.346C104.004 70.0204 108.422 65.9432 114.143 67.2918C120.827 68.8673 121.729 74.6365 119.448 80.3175L119.273 80.753L106.276 77.6892ZM97.2617 81.7883L99.5534 82.3267L97.4209 90.7268L93.7983 89.872L94.9417 85.0283L83.0539 82.2277L81.9109 87.071L78.1986 86.1986L80.1448 77.7509L81.1463 77.9918C83.4654 78.4145 84.738 73.4855 85.313 71.9062L89.0077 61.7969L101.299 64.6919L97.2617 81.7883ZM57.9374 60.7094C59.8107 52.78 65.6139 46.4881 74.2769 48.53C80.2324 49.9322 83.5053 54.4938 83.4731 60.5422L83.4684 61.2298L79.2931 60.2438L79.2798 59.8224C79.1755 56.0783 76.8534 53.5683 73.2844 52.7276C67.2354 51.3027 63.4746 56.4114 62.2213 61.7176C60.9808 66.9759 62.1037 73.2874 68.0991 74.7C72.1148 75.6478 74.8321 74.0526 76.8479 70.5061L77.0512 70.1494L81.1978 71.1286L80.9159 71.7377C78.3277 77.3347 73.1879 80.332 67.1054 78.8994C58.4957 76.8708 56.0744 68.6002 57.9374 60.7094ZM144.115 124.526L194.055 136.295L193.253 139.694L143.313 127.925L144.115 124.526ZM84.0936 26.5152C87.0777 25.3843 90.1207 24.3967 93.2014 23.559C96.2826 22.7218 99.4054 22.0367 102.554 21.5005C105.751 20.9577 108.978 20.5693 112.213 20.3469C115.456 20.1214 118.71 20.0554 121.957 20.1535C125.298 20.2551 128.635 20.5256 131.948 20.9646C135.268 21.4027 138.566 22.0037 141.827 22.7707C145.085 23.538 148.305 24.4773 151.472 25.5653C154.633 26.6533 157.738 27.9007 160.772 29.3021C163.723 30.6636 166.603 32.176 169.403 33.8256C172.201 35.4692 174.911 37.2555 177.53 39.1713C180.109 41.0571 182.6 43.0651 184.984 45.1944C187.359 47.3189 189.636 49.5549 191.798 51.899L192.167 52.2994L189.579 54.691L189.208 54.2876C187.125 52.0293 184.93 49.8696 182.636 47.8222C180.336 45.7714 177.941 43.8294 175.457 42.0109C172.933 40.1642 170.315 38.4477 167.623 36.8633C164.919 35.2728 162.142 33.8072 159.295 32.4924C156.37 31.1433 153.377 29.9417 150.329 28.8944C147.274 27.8424 144.164 26.9465 141.017 26.2036C137.869 25.4624 134.687 24.8755 131.482 24.4502C128.287 24.0306 125.073 23.7661 121.851 23.6692C118.717 23.5736 115.576 23.6439 112.449 23.8587C109.33 24.0739 106.223 24.446 103.14 24.9685C100.106 25.4834 97.0965 26.1478 94.1287 26.9533C91.1552 27.7618 88.2221 28.7174 85.3409 29.8084L84.8294 30.0039L83.5804 26.7094L84.0936 26.5152ZM154.117 211.486C151.132 212.619 148.089 213.604 145.008 214.443C141.929 215.282 138.808 215.965 135.661 216.501C132.463 217.043 129.237 217.431 126 217.654C122.758 217.879 119.505 217.946 116.258 217.846C112.917 217.746 109.581 217.476 106.265 217.037C102.946 216.597 99.6465 215.997 96.3864 215.23C93.1255 214.461 89.9023 213.524 86.7306 212.435C83.5735 211.349 80.4735 210.098 77.4408 208.699C74.4978 207.341 71.6205 205.838 68.8294 204.191C66.028 202.541 63.3111 200.747 60.6878 198.831C58.1133 196.949 55.629 194.943 53.2498 192.821C50.8655 190.694 48.5846 188.452 46.4173 186.102L46.0462 185.701L48.6369 183.312L49.0098 183.714C51.0998 185.979 53.2983 188.145 55.5981 190.197C57.8889 192.242 60.2784 194.179 62.7602 195.99C65.2917 197.839 67.912 199.565 70.6134 201.155C73.3084 202.741 76.079 204.198 78.919 205.508C81.8405 206.855 84.8307 208.059 87.8758 209.106C90.9338 210.159 94.0488 211.057 97.1987 211.8C100.345 212.54 103.527 213.127 106.732 213.552C109.927 213.973 113.141 214.235 116.363 214.332C119.497 214.428 122.634 214.358 125.764 214.142C128.886 213.928 131.995 213.56 135.078 213.035C138.11 212.52 141.115 211.853 144.082 211.048C147.055 210.24 149.991 209.284 152.872 208.193L153.383 207.997L154.63 211.292L154.117 211.486ZM41.3264 100.3L91.2663 112.072L90.464 115.468L40.524 103.7L41.3264 100.3ZM60.5861 145.694C59.3268 151.023 60.4312 157.254 66.5433 158.695C72.5773 160.115 76.4316 155.048 77.688 149.726C78.9443 144.403 77.7639 138.146 71.7269 136.723C65.6195 135.283 61.8403 140.373 60.5861 145.694ZM39.2068 141.896L45.2309 143.317C48.4914 144.085 50.9054 141.125 51.5842 138.244C52.3368 135.062 51.4598 132.203 48.0353 131.395C46.0393 130.885 44.0257 130.443 42.0193 129.978L39.2068 141.896ZM115.87 118.9L118.759 119.583C120.423 119.974 122.227 120.182 122.721 118.094C123.213 116.008 121.63 115.368 119.854 114.95L116.965 114.27L115.87 118.9ZM113.784 127.737L117.039 128.5C118.965 128.955 121.163 129.062 121.708 126.748C122.317 124.178 120.018 123.581 118.051 123.117L115.042 122.408L113.784 127.737ZM184.462 95.1243C183.69 98.3904 184.26 102.507 188.051 103.401C191.841 104.292 194.193 100.867 194.965 97.5995C195.751 94.2708 195.097 90.3718 191.296 89.4772C187.545 88.5924 185.231 91.8624 184.462 95.1243ZM152.892 89.4909C151.787 88.607 150.477 88.0205 149.102 87.696C146.939 87.1876 145.054 87.558 144.486 89.9573C144.062 91.7552 144.99 93.2505 146.787 93.6723C149.057 94.2094 151.578 93.2261 152.521 91.0689L152.892 89.4909ZM107.355 74.2434L116.588 76.4164C117.176 73.6467 116.284 71.5825 113.293 70.8782C110.477 70.2155 108.446 71.8205 107.355 74.2434ZM91.5491 66.398L88.9961 73.6205C88.4701 75.2028 87.6832 77.8161 86.2629 79.1956L93.3036 80.8542L96.4426 67.552L91.5491 66.398Z" fill="#0A2752"/>
<path d="M119.107 0C151.998 0 181.775 13.3197 203.328 34.8535C224.881 56.3868 238.213 86.1397 238.213 119C238.213 151.861 224.881 181.612 203.328 203.146C181.775 224.68 151.998 238 119.107 238C86.217 238 56.4378 224.679 34.8847 203.146C13.3316 181.612 0 151.861 0 119C0 86.1397 13.3325 56.3868 34.8847 34.8535C56.4378 13.3206 86.217 0 119.107 0ZM200.838 37.3407C179.922 16.444 151.025 3.51694 119.107 3.51694C87.1893 3.51694 58.2914 16.444 37.3746 37.3407C16.4591 58.2391 3.52052 87.1111 3.52052 119C3.52052 150.889 16.4591 179.761 37.3746 200.658C58.2914 221.555 87.1893 234.482 119.107 234.482C151.025 234.482 179.922 221.555 200.838 200.658C221.754 179.761 234.693 150.889 234.693 119C234.693 87.1111 221.754 58.2391 200.838 37.3407Z" fill="#0A2752"/>
</svg>
