<svg width="22" height="14" viewBox="0 0 22 14" fill="none" xmlns="http://www.w3.org/2000/svg">
<path d="M21.2571 1.68495C21.3774 1.20854 21.2571 0.811523 20.5352 0.811523H18.1687C17.5671 0.811523 17.2864 1.12913 17.1259 1.48644C17.1259 1.48644 15.9227 4.38463 14.2381 6.29029C13.6766 6.8064 13.4359 7.00491 13.115 7.00491C12.9947 7.00491 12.7541 6.8064 12.7541 6.32999V1.68495C12.7541 1.08943 12.5936 0.811523 12.0722 0.811523H8.38221C7.98113 0.811523 7.78058 1.08943 7.78058 1.36734C7.78058 1.92316 8.62287 2.04226 8.70308 3.63031V7.08431C8.70308 7.83863 8.58276 7.99744 8.26189 7.99744C7.45971 7.99744 5.53449 5.05955 4.37134 1.72465C4.13069 1.08943 3.89003 0.811523 3.2884 0.811523H0.921987C0.280247 0.811523 0.119812 1.12913 0.119812 1.48644C0.119812 2.12166 0.921987 5.17865 3.84993 9.26787C5.81525 12.047 8.58276 13.5159 11.0695 13.5159C12.5535 13.5159 12.7541 13.1983 12.7541 12.6425C12.7541 9.9825 12.6337 9.70459 13.3557 9.70459C13.7167 9.70459 14.3183 9.90309 15.7221 11.2529C17.3265 12.841 17.6072 13.5159 18.4896 13.5159H20.856C21.5379 13.5159 21.8588 13.1983 21.6582 12.5234C21.217 11.1735 18.2089 8.31505 18.0484 8.11654C17.6874 7.67983 17.8078 7.48132 18.0484 7.08431C18.0484 7.08431 20.9363 3.03479 21.2571 1.68495Z" fill="white"/>
</svg>
