<svg width="23" height="16" viewBox="0 0 23 16" fill="none" xmlns="http://www.w3.org/2000/svg">
<path d="M22.3051 2.9623C22.0612 2.00947 21.289 1.25515 20.3541 1.01694C18.6064 0.540527 11.6968 0.540527 11.6968 0.540527C11.6968 0.540527 4.74656 0.540527 2.99883 1.01694C2.064 1.25515 1.29176 2.00947 1.04789 2.9623C0.56015 4.62975 0.56015 8.20286 0.56015 8.20286C0.56015 8.20286 0.56015 11.7363 1.04789 13.4434C1.29176 14.3962 2.064 15.1109 2.99883 15.3491C4.74656 15.7858 11.6968 15.7858 11.6968 15.7858C11.6968 15.7858 18.6064 15.7858 20.3541 15.3491C21.289 15.1109 22.0612 14.3962 22.3051 13.4434C22.7928 11.7363 22.7928 8.20286 22.7928 8.20286C22.7928 8.20286 22.7928 4.62975 22.3051 2.9623ZM9.4207 11.4187V4.98706L15.1923 8.20286L9.4207 11.4187Z" fill="white"/>
</svg>
