<svg width="19" height="20" viewBox="0 0 19 20" fill="none" xmlns="http://www.w3.org/2000/svg">
<path d="M16.2039 3.59179C14.518 1.86479 12.2153 0.87793 9.74817 0.87793C4.73164 0.87793 0.619732 4.98984 0.619732 10.0064C0.619732 11.6511 1.07204 13.2137 1.8533 14.5706L0.578613 19.2993L5.38955 18.0657C6.74648 18.7647 8.22676 19.1759 9.74817 19.1759C14.8058 19.1759 19 15.064 19 10.0475C19 7.58034 17.9309 5.31879 16.2039 3.59179ZM9.74817 17.6134C8.39124 17.6134 7.07543 17.2433 5.88298 16.5443L5.63626 16.3798L2.75792 17.1611L3.53919 14.365L3.33359 14.0772C2.59345 12.8436 2.18226 11.4455 2.18226 10.0064C2.18226 5.85334 5.59514 2.44045 9.78929 2.44045C11.8041 2.44045 13.6956 3.22172 15.1348 4.66089C16.5739 6.10005 17.4374 7.99153 17.4374 10.0475C17.4374 14.2005 13.9423 17.6134 9.74817 17.6134ZM13.9423 11.939C13.6956 11.8156 12.5854 11.2811 12.3798 11.1988C12.1742 11.1166 12.0097 11.0755 11.8452 11.3222C11.7219 11.5278 11.2696 12.0623 11.1462 12.2268C10.9817 12.3502 10.8584 12.3913 10.6528 12.2679C9.29586 11.61 8.43236 11.0755 7.52774 9.55406C7.28102 9.14287 7.77445 9.18398 8.18564 8.32048C8.26788 8.15601 8.22676 8.03265 8.18564 7.90929C8.14453 7.78594 7.6511 6.67572 7.48662 6.22341C7.28102 5.7711 7.11655 5.81222 6.95207 5.81222C6.82871 5.81222 6.66424 5.81222 6.54088 5.81222C6.3764 5.81222 6.12969 5.85334 5.92409 6.10005C5.7185 6.34677 5.14283 6.88132 5.14283 7.99153C5.14283 9.14287 5.92409 10.212 6.04745 10.3764C6.17081 10.4998 7.6511 12.8025 9.95376 13.7893C11.3929 14.4472 11.9686 14.4883 12.7087 14.365C13.1199 14.3239 14.0246 13.8304 14.2301 13.2959C14.4357 12.7613 14.4357 12.309 14.3535 12.2268C14.3124 12.1034 14.1479 12.0623 13.9423 11.939Z" fill="white"/>
</svg>
